<svg width="128" height="30" viewBox="0 0 128 30" fill="none" xmlns="http://www.w3.org/2000/svg">
<path fill-rule="evenodd" clip-rule="evenodd" d="M75.7126 8.51577C75.1026 8.79182 74.7217 9.41096 74.7503 10.0799L74.7703 10.0899C74.7755 10.5125 74.9498 10.9154 75.2542 11.2085C75.5586 11.5017 75.9678 11.6606 76.3903 11.6499C77.0598 11.6493 77.6618 11.2417 77.9109 10.6203C78.1601 9.9988 78.0065 9.28827 77.5229 8.82525C77.0392 8.36224 76.3226 8.23973 75.7126 8.51577ZM39.7203 9.25991H36.5103V22.2599H39.7203V9.25991ZM46.0003 12.2199C43.0003 12.2199 41.0003 14.1499 41.0003 17.3699C41.0003 20.6599 42.9303 22.5399 46.0003 22.5399C49.0703 22.5399 51.0003 20.5899 51.0003 17.3699C51.0003 14.1499 49.0003 12.2199 46.0003 12.2199ZM47.8203 17.3699C47.8203 15.5999 47.1303 14.5599 46.0303 14.5599C44.9303 14.5599 44.2503 15.5599 44.2503 17.3699C44.2503 19.1799 44.9303 20.1699 46.0303 20.1699C47.1303 20.1699 47.8403 19.1799 47.8403 17.3799L47.8203 17.3699ZM55.3803 22.9299H52.2803L52.3003 22.9399C52.4803 24.7299 54.2603 25.9999 57.0403 26.0099C60.1003 26.0099 62.1803 24.5399 62.1803 22.1899V12.4499H59.0003V14.0627C58.4573 12.9757 57.3172 12.3043 56.0903 12.3699C53.5803 12.3699 52.0903 14.2899 52.0903 17.3699C52.0903 20.4499 53.6503 22.2399 56.0003 22.2399C57.2581 22.3321 58.4435 21.6457 58.9903 20.5109V22.2899C58.9903 23.2699 58.3503 23.9299 57.1203 23.9299C56.3816 24.0246 55.6703 23.6158 55.3803 22.9299ZM59.0003 17.3699C59.0003 15.7999 58.2803 14.8099 57.1403 14.8099C56.0003 14.8099 55.3003 15.8099 55.3003 17.3699C55.3003 18.9299 55.9903 19.8499 57.1403 19.8499C58.2903 19.8499 59.0003 18.9999 59.0003 17.3699ZM68.4503 12.2199C65.4503 12.2199 63.4503 14.1499 63.4503 17.3699H63.4703C63.4703 20.6599 65.3903 22.5399 68.4503 22.5399C71.5103 22.5399 73.4503 20.5899 73.4503 17.3699C73.4503 14.1499 71.4503 12.2199 68.4503 12.2199ZM70.2703 17.3699C70.2703 15.5999 69.5703 14.5599 68.4803 14.5599C67.3903 14.5599 66.7003 15.5599 66.7003 17.3699C66.7003 19.1799 67.3803 20.1699 68.4803 20.1699C69.5803 20.1699 70.2903 19.1799 70.2903 17.3799L70.2703 17.3699ZM74.7503 12.4399H78.0003V22.2999H74.8003L74.7503 12.4399ZM85.8003 22.4399C88.2503 22.4399 89.6903 20.5799 89.6903 17.3699L89.7503 17.3799C89.7503 14.1599 88.3003 12.3099 85.7803 12.3299C84.4799 12.268 83.2802 13.0278 82.7803 14.2299H82.7203V12.4699H79.5303V25.4699H82.7403V20.6099H82.8003C83.3177 21.7885 84.5155 22.5192 85.8003 22.4399ZM86.4203 17.3699C86.4203 15.8099 85.6903 14.7999 84.5603 14.7999C83.4303 14.7999 82.7203 15.7999 82.7103 17.3699C82.7003 18.9399 83.4303 19.9299 84.5603 19.9299C85.6903 19.9299 86.4803 18.9999 86.4803 17.3799L86.4203 17.3699ZM99.5503 15.5199C99.5303 13.4799 97.8603 12.2099 95.1703 12.2099L95.2303 12.2199C92.5203 12.2199 90.8403 13.4699 90.7803 15.4299C90.7803 16.9399 91.7903 17.9499 93.7203 18.3599L95.5803 18.7499C96.3503 18.9099 96.6503 18.9999 96.6503 19.5299C96.6503 20.0599 96.2103 20.3599 95.2703 20.3599C94.3303 20.3599 93.7503 19.9299 93.6603 19.1999H90.5503C90.6803 21.2099 92.4703 22.5299 95.2203 22.5299C97.9703 22.5299 99.8203 21.1699 99.8203 19.1699C99.8203 17.6799 99.0203 16.8799 97.0203 16.4599L94.9603 16.0399C94.2203 15.8899 93.8503 15.7299 93.8503 15.2199C93.8503 14.7099 94.2703 14.3699 95.1503 14.3699C96.0303 14.3699 96.6203 14.8099 96.6203 15.5199H99.5503ZM110.57 22.2899H107.46V20.4399H107.4C107.042 21.711 105.849 22.5629 104.53 22.4899C103.553 22.5217 102.608 22.1347 101.934 21.4261C101.26 20.7175 100.92 19.7547 101 18.7799V12.4499H104.21V18.0899C104.21 19.2499 104.82 19.8799 105.82 19.8799C106.295 19.8763 106.745 19.6673 107.054 19.3067C107.362 18.9462 107.5 18.4695 107.43 17.9999V12.4499H110.63L110.57 22.2899ZM115.24 12.4399H112.12L112.14 22.2999H115.35V16.4799C115.298 16.0706 115.426 15.6587 115.7 15.3502C115.974 15.0417 116.368 14.8666 116.78 14.8699C117.66 14.8699 118.15 15.3999 118.15 16.3999V22.2999H121.21V16.4599C121.155 16.0552 121.279 15.6465 121.55 15.3408C121.821 15.0352 122.212 14.8632 122.62 14.8699C123.53 14.8699 124 15.4299 124 16.4299V22.2999H127.23V15.6099C127.296 14.7239 126.982 13.8517 126.365 13.2121C125.748 12.5725 124.888 12.2261 124 12.2599C122.642 12.1963 121.411 13.054 121 14.3499H120.86C120.623 13.0508 119.436 12.1455 118.12 12.2599C116.82 12.2334 115.665 13.0882 115.31 14.3399H115.24V12.4399Z" fill="#696871"/>
<path fill-rule="evenodd" clip-rule="evenodd" d="M30.16 10.1099C30.1602 6.03627 27.6602 2.38014 23.8641 0.902395C20.068 -0.575349 15.754 0.428268 13 3.42987H0.52002V29.7699H26.87V17.4599C28.9617 15.589 30.1581 12.9162 30.16 10.1099ZM25.09 10.1099C25.0941 12.0603 23.9223 13.8209 22.1215 14.5701C20.3207 15.3193 18.2459 14.9094 16.8653 13.5317C15.4847 12.1539 15.0705 10.08 15.816 8.27765C16.5614 6.47532 18.3196 5.29988 20.27 5.29987C22.9281 5.29987 25.0845 7.45176 25.09 10.1099ZM5.59002 24.6999H21.8V19.8699C21.2943 19.9537 20.7827 19.9972 20.27 19.9999C14.8102 19.9944 10.3855 15.5697 10.38 10.1099C10.3844 9.56993 10.4346 9.03133 10.53 8.49987H5.59002V24.6999Z" fill="#696871"/>
</svg>
