<svg width="101" height="48" viewBox="0 0 101 48" fill="none" xmlns="http://www.w3.org/2000/svg">
<path d="M0.790039 28.79H3.79004V43.5H0.790039V28.79Z" fill="#696871"/>
<path fill-rule="evenodd" clip-rule="evenodd" d="M8.81956 33.5194C6.82446 34.3491 5.52598 36.2993 5.53003 38.46C5.51649 39.8795 6.07507 41.2446 7.07976 42.2474C8.08445 43.2502 9.4506 43.8062 10.87 43.79C13.0308 43.79 14.9786 42.4879 15.8045 40.4912C16.6304 38.4946 16.1717 36.197 14.6424 34.6705C13.1131 33.1441 10.8147 32.6897 8.81956 33.5194ZM10.8311 36.2004C12.1043 36.1785 13.1571 37.187 13.19 38.46C13.2238 39.0905 12.9923 39.7063 12.5516 40.1584C12.1109 40.6105 11.5011 40.8577 10.87 40.84C9.59663 40.8396 8.56158 39.8129 8.55088 38.5395C8.54019 37.2662 9.55785 36.2222 10.8311 36.2004Z" fill="#696871"/>
<path fill-rule="evenodd" clip-rule="evenodd" d="M28.2703 43V33.42L25.3203 33.45V34.45C24.6019 33.5739 23.5121 33.0883 22.3803 33.14C19.5526 33.14 17.2603 35.4323 17.2603 38.26C17.2603 41.0877 19.5526 43.38 22.3803 43.38C23.513 43.4366 24.6049 42.95 25.3203 42.07V43C25.3784 43.618 25.1462 44.228 24.6919 44.651C24.2375 45.074 23.6126 45.262 23.0003 45.16C22.0609 45.2377 21.1692 44.7344 20.7503 43.89L18.1703 45.38C19.1787 47.0215 21.019 47.9629 22.9403 47.82C25.6203 47.82 28.2703 46.39 28.2703 43ZM23.8854 35.9357C24.7931 36.3451 25.3611 37.265 25.3203 38.26C25.3388 38.9038 25.0842 39.5254 24.6193 39.9712C24.1545 40.4171 23.5227 40.6454 22.8803 40.6C21.8844 40.5991 20.9891 39.9933 20.618 39.0692C20.247 38.1451 20.4747 37.0882 21.1934 36.3989C21.9121 35.7097 22.9776 35.5263 23.8854 35.9357Z" fill="#696871"/>
<path fill-rule="evenodd" clip-rule="evenodd" d="M33.2898 33.5194C31.2947 34.3491 29.9962 36.2993 30.0002 38.46C29.9867 39.8795 30.5453 41.2446 31.55 42.2474C32.5547 43.2502 33.9208 43.8062 35.3402 43.79C37.501 43.79 39.4488 42.4879 40.2747 40.4912C41.1006 38.4946 40.6419 36.197 39.1126 34.6705C37.5833 33.1441 35.2849 32.6897 33.2898 33.5194ZM35.3013 36.2004C36.5745 36.1785 37.6273 37.187 37.6602 38.46H37.6402C37.6737 39.0869 37.4449 39.6995 37.0086 40.1509C36.5723 40.6024 35.9679 40.852 35.3402 40.84C34.0668 40.8396 33.0318 39.8129 33.0211 38.5395C33.0104 37.2662 34.0281 36.2222 35.3013 36.2004Z" fill="#696871"/>
<path fill-rule="evenodd" clip-rule="evenodd" d="M43.8898 28.8999C42.8847 28.8999 42.0698 29.7147 42.0698 30.7199C42.0753 31.7228 42.8869 32.5344 43.8898 32.5399C44.895 32.5399 45.7098 31.7251 45.7098 30.7199C45.7098 29.7147 44.895 28.8999 43.8898 28.8999ZM45.3798 33.4199H42.3798V43.4999H45.3798V33.4199Z" fill="#696871"/>
<path fill-rule="evenodd" clip-rule="evenodd" d="M57.1639 42.1257C58.0669 41.1252 58.5334 39.8057 58.4599 38.4599C58.5306 37.1158 58.0629 35.7989 57.1602 34.8005C56.2576 33.8022 54.9943 33.2046 53.6499 33.1399C52.5171 33.0855 51.4185 33.536 50.6499 34.3699V33.4199H47.6499V47.5599H50.6499V42.5599C51.4185 43.3939 52.5171 43.8443 53.6499 43.7899C54.9961 43.7253 56.261 43.1263 57.1639 42.1257ZM53.0404 36.1208C54.3501 36.1097 55.4267 37.1506 55.4599 38.4599H55.4399C55.4874 39.1222 55.2464 39.7728 54.7788 40.2442C54.3112 40.7157 53.6626 40.962 52.9999 40.9199C51.6906 40.8867 50.6497 39.8101 50.6608 38.5004C50.6718 37.1908 51.7308 36.1318 53.0404 36.1208Z" fill="#696871"/>
<path d="M67.8 40.48C67.8 42.8 65.8 43.79 63.6 43.79C61.802 43.9492 60.0879 42.9991 59.27 41.39L61.89 39.9C62.1092 40.6495 62.8211 41.1449 63.6 41.09C64.33 41.09 64.69 40.86 64.69 40.46C64.69 39.35 59.69 39.94 59.69 36.46C59.69 34.26 61.55 33.15 63.69 33.15C65.2981 33.1011 66.8064 33.928 67.63 35.31L65 36.69C64.7626 36.1504 64.2295 35.8015 63.64 35.8C63.12 35.8 62.8 36 62.8 36.37C62.84 37.52 67.8 36.75 67.8 40.48Z" fill="#696871"/>
<path d="M78.8399 33.4199V43.4999H75.8399V42.5599C75.132 43.4071 74.0614 43.8643 72.9599 43.7899C70.9599 43.7899 69.1899 42.3399 69.1899 39.6099V33.4199H72.1899V39.1699C72.1365 39.6662 72.3092 40.1601 72.6602 40.5149C73.0111 40.8698 73.5032 41.0479 73.9999 40.9999C75.0999 40.9999 75.8699 40.3599 75.8699 38.9299V33.4199H78.8399Z" fill="#696871"/>
<path d="M96.1799 37.32V43.5H93.1799V37.58C93.1799 36.58 92.6899 35.92 91.7299 35.92C90.7699 35.92 90.1499 36.63 90.1499 37.82V43.5H87.1499V37.58C87.1499 36.58 86.6699 35.92 85.6999 35.92C84.7299 35.92 84.1299 36.63 84.1299 37.82V43.5H81.1299V33.42H84.1299V34.35C84.7669 33.5155 85.7831 33.0601 86.8299 33.14C87.8824 33.0889 88.8845 33.5938 89.4699 34.47C90.1501 33.5545 91.2527 33.0523 92.3899 33.14C94.6699 33.14 96.1799 34.8 96.1799 37.32Z" fill="#696871"/>
<path d="M98.74 33.3599C99.9771 33.3599 100.98 32.357 100.98 31.1199C100.98 29.8828 99.9771 28.8799 98.74 28.8799C97.5029 28.8799 96.5 29.8828 96.5 31.1199C96.5 32.357 97.5029 33.3599 98.74 33.3599Z" fill="#696871"/>
<path d="M34.74 21.1599C40.5335 21.1599 45.23 16.4634 45.23 10.6699C45.23 4.87646 40.5335 0.179932 34.74 0.179932C28.9465 0.179932 24.25 4.87646 24.25 10.6699C24.25 16.4634 28.9465 21.1599 34.74 21.1599Z" fill="#696871"/>
<path d="M58.1902 21.1599C63.9837 21.1599 68.6802 16.4634 68.6802 10.6699C68.6802 4.87646 63.9837 0.179932 58.1902 0.179932C52.3967 0.179932 47.7002 4.87646 47.7002 10.6699C47.7002 16.4634 52.3967 21.1599 58.1902 21.1599Z" fill="#696871"/>
<rect x="0.810059" y="0.179932" width="20.97" height="20.97" fill="#696871"/>
</svg>
