<svg width="124" height="30" viewBox="0 0 124 30" fill="none" xmlns="http://www.w3.org/2000/svg">
<path d="M26.7302 10.71C27.0902 10.71 27.2102 10.84 27.2102 11.19V19.11H31.2802C31.6302 19.11 31.7602 19.24 31.7602 19.59V20.29C31.7602 20.64 31.6302 20.77 31.2802 20.77H25.9202C25.5702 20.77 25.4302 20.64 25.4302 20.29V11.19C25.4302 10.84 25.5702 10.71 25.9202 10.71H26.7302Z" fill="#696871"/>
<path fill-rule="evenodd" clip-rule="evenodd" d="M39.3101 10.5C36.7701 10.5 35.3101 11.89 35.3101 14.2V17.28C35.3101 19.59 36.7801 20.98 39.3101 20.98C41.8401 20.98 43.3101 19.59 43.3101 17.28V14.2C43.3101 11.89 41.8501 10.5 39.3101 10.5ZM39.3601 12.2C40.8201 12.2 41.6301 12.9 41.6301 14.2V17.3C41.6301 18.58 40.8201 19.3 39.3601 19.3C37.9001 19.3 37.1001 18.61 37.1001 17.3V14.2C37.1001 12.91 37.9001 12.2 39.3601 12.2Z" fill="#696871"/>
<path d="M55.2201 15.26C55.6101 15.26 55.7001 15.39 55.7001 15.74V17.64C55.7216 18.5464 55.3319 19.4139 54.6401 20C53.7918 20.6755 52.7222 21.0106 51.6401 20.94C49.0501 20.94 47.6401 19.55 47.6401 17.24V14.14C47.6401 11.86 49.1001 10.46 51.6401 10.46C53.6401 10.46 54.9401 11.25 55.4901 12.83C55.5525 12.9503 55.5545 13.0931 55.4954 13.2151C55.4364 13.3371 55.3232 13.4242 55.1901 13.45L54.4101 13.72C54.0701 13.84 53.9301 13.77 53.8101 13.42C53.4694 12.5412 52.5757 12.0059 51.6401 12.12C50.1701 12.12 49.3701 12.83 49.3701 14.12V17.3C49.3701 18.61 50.1801 19.3 51.6401 19.3C53.1001 19.3 54.0001 18.63 54.0001 17.65V16.91H51.8301C51.4701 16.91 51.3401 16.77 51.3401 16.42V15.74C51.3401 15.39 51.4701 15.26 51.8301 15.26H55.2201Z" fill="#696871"/>
<path fill-rule="evenodd" clip-rule="evenodd" d="M63.8301 10.5C61.2901 10.5 59.8301 11.89 59.8301 14.2V17.28C59.8301 19.59 61.3001 20.98 63.8301 20.98C66.3601 20.98 67.8301 19.59 67.8301 17.28V14.2C67.8301 11.89 66.3701 10.5 63.8301 10.5ZM63.8801 12.2C65.3301 12.2 66.1401 12.9 66.1401 14.2V17.3C66.1401 18.58 65.3401 19.3 63.8801 19.3C62.4201 19.3 61.6101 18.61 61.6101 17.3V14.2C61.6101 12.91 62.4301 12.2 63.8801 12.2Z" fill="#696871"/>
<path d="M72.54 11C72.54 10.78 72.61 10.71 72.83 10.71H73.29C73.51 10.71 73.56 10.78 73.56 11V20.48C73.56 20.7 73.56 20.77 73.29 20.77H72.83C72.61 20.77 72.54 20.7 72.54 20.48V11Z" fill="#696871"/>
<path fill-rule="evenodd" clip-rule="evenodd" d="M85.8099 13.85C85.8099 12.1158 84.4041 10.71 82.6699 10.71H78.9399C78.7299 10.71 78.6499 10.78 78.6499 11V20.48C78.6499 20.7 78.7299 20.77 78.9399 20.77H79.4099C79.6199 20.77 79.6699 20.7 79.6699 20.48V16.99H82.6699C84.4041 16.99 85.8099 15.5841 85.8099 13.85ZM84.4678 14.91C84.0784 15.5845 83.3587 16 82.5799 16H79.5799V11.64H82.5799C83.3587 11.64 84.0784 12.0555 84.4678 12.73C84.8573 13.4045 84.8573 14.2355 84.4678 14.91Z" fill="#696871"/>
<path d="M93.6198 10.5099C95.2052 10.335 96.7175 11.2212 97.3398 12.6899C97.4198 12.8499 97.3398 12.9799 97.1798 13.0599L96.7398 13.2599C96.5598 13.3299 96.4898 13.3199 96.3798 13.1299C95.9149 12.0407 94.7987 11.3775 93.6198 11.4899C91.9298 11.4899 91.0098 12.1599 91.0098 13.3599C90.9895 14.1183 91.5314 14.7755 92.2798 14.8999C92.8176 15.0754 93.3753 15.1829 93.9398 15.2199C94.6231 15.2564 95.2972 15.3946 95.9398 15.6299C96.9551 15.9512 97.6062 16.9403 97.4998 17.9999C97.4998 19.8699 96.1398 20.9999 93.6398 20.9999C91.9501 21.1932 90.3546 20.181 89.8098 18.5699C89.774 18.4978 89.7724 18.4134 89.8053 18.3399C89.8382 18.2664 89.9021 18.2114 89.9798 18.1899L90.4198 18.0299C90.4898 18.0013 90.5687 18.0034 90.6372 18.0357C90.7056 18.0681 90.7573 18.1276 90.7798 18.1999C91.2388 19.3592 92.396 20.0875 93.6398 19.9999C95.5298 19.9999 96.4598 19.3399 96.4598 17.9999C96.4961 17.2725 96.0013 16.6255 95.2898 16.4699C94.7723 16.3156 94.2388 16.2216 93.6998 16.1899L92.6198 16.0499C92.2818 15.9782 91.9479 15.8881 91.6198 15.7799C91.2956 15.682 90.9934 15.5224 90.7298 15.3099C90.1928 14.8236 89.8996 14.1238 89.9298 13.3999C89.9998 11.6499 91.3098 10.5099 93.6198 10.5099Z" fill="#696871"/>
<path d="M102.89 17.35C102.978 18.8179 104.194 19.9633 105.665 19.9633C107.135 19.9633 108.352 18.8179 108.44 17.35V11C108.44 10.78 108.51 10.71 108.73 10.71H109.19C109.41 10.71 109.48 10.78 109.48 11V17.34C109.48 19.61 108.14 20.98 105.67 20.98C103.2 20.98 101.86 19.61 101.86 17.34V11C101.86 10.78 101.93 10.71 102.14 10.71H102.61C102.82 10.71 102.89 10.78 102.89 11V17.35Z" fill="#696871"/>
<path d="M123.28 10.71C123.5 10.71 123.57 10.78 123.57 11V20.48C123.57 20.7 123.5 20.77 123.28 20.77H122.86C122.65 20.77 122.58 20.7 122.58 20.48V14.71C122.58 13.8704 122.637 13.0318 122.75 12.2H122.69C122.378 12.9607 122.014 13.6991 121.6 14.41L119.45 18.2C119.396 18.3346 119.265 18.4221 119.12 18.42H118.84C118.693 18.4207 118.56 18.3343 118.5 18.2L116.32 14.37C115.933 13.6692 115.599 12.9405 115.32 12.19H115.26C115.363 13.0295 115.416 13.8743 115.42 14.72V20.48C115.42 20.7 115.35 20.77 115.13 20.77H114.74C114.52 20.77 114.45 20.7 114.45 20.48V11C114.45 10.78 114.52 10.71 114.74 10.71H115.1C115.269 10.6943 115.429 10.7864 115.5 10.94L119 17.16L122.48 11C122.59 10.79 122.65 10.76 122.87 10.76L123.28 10.71Z" fill="#696871"/>
<path fill-rule="evenodd" clip-rule="evenodd" d="M2.30996 1.69001V22C2.30996 22.2493 2.21093 22.4884 2.03464 22.6647C1.85836 22.841 1.61926 22.94 1.36996 22.94H1.14996C0.630813 22.94 0.209961 22.5192 0.209961 22V1.69001C0.215443 1.17477 0.634694 0.759981 1.14996 0.76001H1.36996C1.88523 0.759981 2.30448 1.17477 2.30996 1.69001ZM13.8403 14.5646C14.0388 14.3756 14.3062 14.2763 14.58 14.29L14.53 14.31C14.821 14.2803 15.1104 14.3795 15.322 14.5815C15.5335 14.7835 15.6461 15.0679 15.63 15.36V20.86C15.63 21.4399 15.1599 21.91 14.58 21.91C14.0001 21.91 13.53 21.4399 13.53 20.86V15.29C13.5296 15.0159 13.6418 14.7537 13.8403 14.5646ZM16.84 17.46C16.84 16.9077 17.2877 16.46 17.84 16.46C18.1293 16.4334 18.4159 16.534 18.6252 16.7356C18.8345 16.9372 18.9457 17.2199 18.93 17.51V18.72C18.93 19.2971 18.4621 19.765 17.885 19.765C17.3078 19.765 16.84 19.2971 16.84 18.72V17.46ZM8.93996 25.78V18.55C8.62725 18.7877 8.2426 18.9112 7.84996 18.9C7.48979 18.8911 7.14092 18.7725 6.84996 18.56V25.78C6.84996 26.3571 7.31782 26.825 7.89496 26.825C8.4721 26.825 8.93996 26.3571 8.93996 25.78ZM4.57996 21.29C4.22013 21.2792 3.87179 21.1608 3.57996 20.95V28.2C3.57996 28.7799 4.05006 29.25 4.62996 29.25C5.20986 29.25 5.67996 28.7799 5.67996 28.2V21C5.35341 21.2111 4.96812 21.3127 4.57996 21.29ZM11.26 16.43C10.8833 16.4274 10.5166 16.3087 10.21 16.09V23.36C10.21 23.9399 10.6801 24.41 11.26 24.41C11.8399 24.41 12.31 23.9399 12.31 23.36V16.1C11.9927 16.3363 11.6054 16.4595 11.21 16.45L11.26 16.43ZM4.68996 20.52H4.46996C3.95081 20.52 3.52996 20.0992 3.52996 19.58V4.11001C3.53544 3.59477 3.95469 3.17998 4.46996 3.18001H4.68996C5.20523 3.17998 5.62448 3.59477 5.62996 4.11001V19.6C5.62996 20.1192 5.20911 20.54 4.68996 20.54V20.52ZM7.76996 18.14H7.99996C8.51359 18.14 8.92996 17.7236 8.92996 17.21V6.51001C8.92999 5.99474 8.5152 5.57549 7.99996 5.57001H7.76996C7.52157 5.57 7.28349 5.66935 7.10879 5.84593C6.93409 6.0225 6.83729 6.26163 6.83996 6.51001V17.21C6.83996 17.7236 7.25634 18.14 7.76996 18.14ZM11.31 15.69H11.1C10.5847 15.69 10.1654 15.2752 10.16 14.76V9.00001C10.1434 8.74048 10.235 8.48568 10.4131 8.29619C10.5912 8.10671 10.8399 7.99948 11.1 8.00001H11.32C11.8391 8.00001 12.26 8.42086 12.26 8.94001V14.74C12.2626 14.991 12.1648 15.2327 11.9882 15.4112C11.8116 15.5896 11.571 15.69 11.32 15.69H11.31ZM14.41 13.54H14.63H14.64C15.1552 13.5345 15.57 13.1153 15.57 12.6V11.11C15.5645 10.5948 15.1452 10.18 14.63 10.18H14.41C13.8947 10.18 13.4754 10.5948 13.47 11.11V12.6C13.47 13.1192 13.8908 13.54 14.41 13.54Z" fill="#696871"/>
</svg>
