<svg width="120" height="28" viewBox="0 0 120 28" fill="none" xmlns="http://www.w3.org/2000/svg">
<path fill-rule="evenodd" clip-rule="evenodd" d="M71.3497 7.38148C70.7832 7.63254 70.424 8.20052 70.4401 8.81998V8.83998C70.4364 9.24689 70.6026 9.63691 70.8988 9.91598C71.1949 10.1951 71.5941 10.3379 72.0001 10.31C72.6197 10.2976 73.1706 9.91279 73.3954 9.33534C73.6202 8.75789 73.4745 8.10187 73.0264 7.67387C72.5783 7.24587 71.9162 7.13042 71.3497 7.38148ZM37.8701 8.06998H34.8701V20.2H37.8701V8.06998ZM43.7401 10.83C40.9001 10.83 39.0601 12.62 39.0601 15.62C39.0601 18.67 40.8601 20.42 43.7401 20.42C46.6201 20.42 48.4201 18.62 48.4201 15.62C48.4201 12.62 46.5801 10.83 43.7401 10.83ZM45.4101 15.62C45.4101 13.97 44.7601 13 43.7401 13C42.7201 13 42.0801 14 42.0801 15.62C42.0801 17.24 42.7101 18.22 43.7401 18.22C44.7701 18.22 45.4101 17.3 45.4101 15.63V15.62ZM52.4301 20.79H49.5501V20.8C49.7201 22.46 51.3701 23.65 54.0201 23.65C56.8701 23.65 58.8001 22.29 58.8001 20.1V11H55.8001V12.67C55.3377 11.5647 54.2373 10.863 53.0401 10.91C50.7401 10.91 49.3601 12.72 49.3601 15.59C49.3601 18.46 50.8101 20.13 53.0001 20.13C54.1599 20.193 55.2411 19.5434 55.7301 18.49H55.7901V20.17C55.7901 21.07 55.1901 21.69 54.0501 21.69C53.3705 21.7814 52.7116 21.4153 52.4301 20.79ZM55.8001 15.61C55.8001 14.15 55.1301 13.23 54.0701 13.23C53.0101 13.23 52.3601 14.14 52.3601 15.61C52.3601 17.08 53.0001 17.91 54.0701 17.91C55.1401 17.91 55.8001 17.1 55.8001 15.62V15.61ZM64.6101 10.82C61.7701 10.82 59.9301 12.61 59.9301 15.61V15.62C59.9301 18.67 61.7201 20.41 64.6101 20.41C67.5001 20.41 69.3001 18.61 69.3001 15.61C69.3001 12.61 67.4501 10.82 64.6101 10.82ZM66.2801 15.61C66.2801 13.96 65.6301 12.99 64.6101 12.99C63.5901 12.99 63.0001 14 63.0001 15.63C63.0001 17.26 63.6301 18.23 64.6501 18.23C65.6701 18.23 66.2801 17.3 66.2801 15.63V15.61ZM70.4401 11.02H73.4401V20.2H70.4401V11.02ZM80.7201 20.32C83.0001 20.32 84.3301 18.61 84.3301 15.61L84.3701 15.63C84.3701 12.63 83.0001 10.91 80.7001 10.87C79.4933 10.8161 78.3819 11.5237 77.9201 12.64H77.8601V11H74.8601V23.14H77.8601V18.62H77.9201C78.4044 19.7179 79.5226 20.3968 80.7201 20.32ZM81.3301 15.61C81.3301 14.15 80.6601 13.22 79.6101 13.22C78.5601 13.22 77.8901 14.16 77.8801 15.61C77.8701 17.06 78.5601 17.99 79.6101 17.99C80.6601 17.99 81.3301 17.08 81.3301 15.63V15.61ZM93.5501 13.88C93.4801 11.99 91.9701 10.81 89.4801 10.81V10.83C87.0001 10.83 85.3901 12 85.3701 13.8C85.3701 15.2 86.3101 16.15 88.1001 16.52L89.8301 16.89C90.5501 17.04 90.8301 17.14 90.8301 17.62C90.8301 18.1 90.4301 18.39 89.5501 18.39C88.6701 18.39 88.1301 17.99 88.0401 17.31H85.1501C85.2801 19.18 86.9501 20.4 89.5001 20.4C92.0501 20.4 93.7801 19.18 93.7801 17.28C93.7801 15.89 93.0001 15.15 91.1701 14.76L89.2501 14.37C88.5801 14.23 88.2501 14.08 88.2501 13.61C88.2501 13.14 88.6201 12.82 89.4501 12.82C90.2801 12.82 90.8201 13.23 90.8201 13.88H93.5501ZM103.79 20.18H100.9V18.47H100.84C100.513 19.6529 99.4056 20.4479 98.1801 20.38C97.2579 20.4324 96.3583 20.0825 95.7138 19.4208C95.0693 18.7591 94.7433 17.8505 94.8201 16.93V11H97.8201V16.24C97.8201 17.33 98.3801 17.91 99.3101 17.91C99.7513 17.9109 100.171 17.7213 100.463 17.3898C100.754 17.0584 100.888 16.6174 100.83 16.18V11H103.83L103.79 20.18ZM108.14 11H105.24L105.19 20.2H108.19V14.79C108.144 14.4095 108.264 14.0277 108.518 13.741C108.772 13.4543 109.137 13.2901 109.52 13.29C110.34 13.29 110.79 13.79 110.79 14.71V20.2H113.64V14.77C113.591 14.3942 113.707 14.0155 113.958 13.7317C114.209 13.4479 114.571 13.2868 114.95 13.29C115.79 13.29 116.24 13.75 116.24 14.75V20.2H119.24V13.95C119.3 13.1266 119.008 12.3165 118.435 11.7214C117.863 11.1263 117.065 10.8023 116.24 10.83C114.954 10.7747 113.793 11.5977 113.42 12.83H113.36C113.161 11.6008 112.051 10.7306 110.81 10.83C109.6 10.8076 108.527 11.6049 108.2 12.77H108.14V11Z" fill="#696871"/>
<path fill-rule="evenodd" clip-rule="evenodd" d="M24.4801 5.3999C25.2976 6.37183 25.9712 7.45626 26.4801 8.6199C27.2214 10.3165 27.6027 12.1484 27.6001 13.9999C27.5946 21.4733 21.5434 27.5334 14.0701 27.5499C12.3312 27.5489 10.6091 27.2093 9.00009 26.5499C7.85244 26.0939 6.77509 25.4778 5.80009 24.7199C1.65307 21.5595 -0.308887 16.2973 0.756806 11.1933C1.8225 6.08937 5.72618 2.05194 10.7914 0.814978C15.8565 -0.421984 21.1818 1.36166 24.4801 5.3999ZM18.5801 4.1899C17.1643 3.53104 15.6216 3.18973 14.0601 3.1899L14.0701 3.1699C10.3671 3.16714 6.92092 5.06168 4.93906 8.18964C2.9572 11.3176 2.71604 15.2428 4.30009 18.5899C4.75178 18.1154 5.03013 17.5023 5.09009 16.8499C5.4538 14.3373 7.4275 12.3636 9.94009 11.9999C11.3577 11.8713 12.4898 10.7643 12.6501 9.3499C13.0138 6.83731 14.9875 4.86361 17.5001 4.4999C17.8719 4.44325 18.2349 4.33907 18.5801 4.1899ZM5.79009 20.9999C5.83009 20.9632 5.8701 20.9277 5.9101 20.8921L5.91016 20.8921C5.99014 20.821 6.07011 20.7499 6.15009 20.6699C7.03974 19.8074 7.6108 18.6688 7.77009 17.4399C7.83467 16.7491 8.14309 16.1039 8.64009 15.6199C9.11834 15.1221 9.76206 14.8162 10.4501 14.7599C12.9627 14.3962 14.9364 12.4225 15.3001 9.9099C15.3434 9.18741 15.6534 8.50674 16.1701 7.9999C16.6601 7.51175 17.31 7.217 18.0001 7.1699C19.124 7.01526 20.1722 6.51561 21.0001 5.7399C21.9427 6.52197 22.7414 7.46279 23.3601 8.5199C23.3221 8.57125 23.2785 8.61821 23.2301 8.6599C22.7528 9.16209 22.1099 9.47466 21.4201 9.5399C18.9044 9.89734 16.9275 11.8742 16.5701 14.3899C16.4248 15.8092 15.3 16.9299 13.8801 17.0699C11.3605 17.4308 9.3765 19.4026 9.00009 21.9199C8.94627 22.4086 8.77843 22.8779 8.51009 23.2899C7.48409 22.6807 6.56518 21.9071 5.79009 20.9999ZM11.0601 24.4399C12.0355 24.7196 13.0454 24.861 14.0601 24.8599V24.8099C17.4092 24.7969 20.5634 23.2337 22.6022 20.5767C24.641 17.9196 25.3344 14.4682 24.4801 11.2299C23.7209 11.7667 22.8421 12.11 21.9201 12.2299C20.5041 12.3744 19.3846 13.4939 19.2401 14.9099C18.8753 17.4256 16.8966 19.4002 14.3801 19.7599C12.9641 19.9044 11.8446 21.0239 11.7001 22.4399C11.6107 23.1401 11.3938 23.8179 11.0601 24.4399Z" fill="#696871"/>
</svg>
