<svg width="118" height="24" viewBox="0 0 118 24" fill="none" xmlns="http://www.w3.org/2000/svg">
<path d="M37.8796 19.3901C37.2848 19.4223 36.6965 19.2532 36.2096 18.9101C35.7966 18.6039 35.5609 18.1139 35.5796 17.6001V8.33006C35.5698 8.25053 35.5971 8.1709 35.6538 8.11424C35.7105 8.05758 35.7901 8.03021 35.8696 8.04006H37.5496C37.7396 8.04006 37.8296 8.14006 37.8296 8.33006V16.8801C37.8296 17.2601 37.9996 17.4501 38.3496 17.4501C38.498 17.4562 38.6464 17.4393 38.7896 17.4001C38.9896 17.4001 39.0996 17.4601 39.1096 17.6401L39.2596 18.8901C39.2742 18.9638 39.2562 19.0402 39.2101 19.0997C39.1641 19.1591 39.0946 19.1957 39.0196 19.2001C38.6516 19.3216 38.2671 19.3857 37.8796 19.3901Z" fill="#696871"/>
<path fill-rule="evenodd" clip-rule="evenodd" d="M41.3296 18.32C43.0709 19.7587 45.5883 19.7587 47.3296 18.32V18.31C48.8357 16.7394 48.8357 14.2607 47.3296 12.69C45.5855 11.2592 43.0737 11.2592 41.3296 12.69C39.7853 14.249 39.7853 16.7611 41.3296 18.32ZM45.7696 17C44.958 17.7352 43.7212 17.7352 42.9096 17C42.1765 16.1571 42.1765 14.9029 42.9096 14.06C43.7212 13.3249 44.958 13.3249 45.7696 14.06C46.5027 14.9029 46.5027 16.1571 45.7696 17Z" fill="#696871"/>
<path fill-rule="evenodd" clip-rule="evenodd" d="M57.9897 12.1599C57.9897 11.9699 57.8997 11.8699 57.7097 11.8699L56.0497 11.8799C55.9719 11.8734 55.8951 11.9022 55.8409 11.9584C55.7866 12.0147 55.7604 12.0923 55.7697 12.1699V12.3299C55.1595 11.8632 54.4077 11.6197 53.6397 11.6399C52.5862 11.6024 51.5621 11.9918 50.7997 12.7199C49.3011 14.2703 49.3011 16.7296 50.7997 18.2799C51.5586 19.0147 52.5842 19.4083 53.6397 19.3699C54.3861 19.3911 55.1182 19.1624 55.7197 18.7199V19.3499C55.7401 19.8133 55.5704 20.2648 55.2497 20.5999C54.8989 20.9202 54.434 21.0859 53.9597 21.0599C53.5706 21.0678 53.1856 20.9784 52.8397 20.7999C52.5559 20.6465 52.3387 20.3937 52.2297 20.0899C52.1747 19.955 52.0454 19.8649 51.8997 19.8599H50.2197C49.9497 19.8599 49.9497 19.9499 49.9497 20.1499C50.0904 20.9693 50.5648 21.6936 51.2597 22.1499C52.0648 22.6718 53.0109 22.9336 53.9697 22.8999C55.0313 22.9467 56.0712 22.5894 56.8797 21.8999C57.6175 21.2538 58.0251 20.31 57.9897 19.3299V12.1599ZM55.1997 16.9999C54.8531 17.39 54.3513 17.6061 53.8297 17.5899C53.3026 17.6052 52.795 17.3897 52.4397 16.9999C52.0811 16.5881 51.8917 16.0557 51.9097 15.5099C51.8877 14.9587 52.0814 14.4206 52.4497 14.0099C52.8042 13.619 53.3123 13.4034 53.8397 13.4199C54.3565 13.4029 54.8543 13.6152 55.1997 13.9999C55.8836 14.883 55.8836 16.1168 55.1997 16.9999Z" fill="#696871"/>
<path fill-rule="evenodd" clip-rule="evenodd" d="M60.6198 18.3201C62.3639 19.7509 64.8757 19.7509 66.6198 18.3201V18.3101C68.1258 16.7394 68.1258 14.2607 66.6198 12.6901C64.8743 11.2631 62.3652 11.2631 60.6198 12.6901C59.1124 14.264 59.1124 16.7461 60.6198 18.3201ZM63.6298 17.55C63.0955 17.5665 62.577 17.3684 62.1898 17.0001C61.4694 16.1524 61.4694 14.9077 62.1898 14.0601C62.577 13.6917 63.0955 13.4936 63.6298 13.5101C64.1605 13.4963 64.675 13.6942 65.0598 14.0601C65.7801 14.9077 65.7801 16.1524 65.0598 17.0001C64.675 17.3659 64.1605 17.5638 63.6298 17.55Z" fill="#696871"/>
<path fill-rule="evenodd" clip-rule="evenodd" d="M69.4498 10.1701C69.9966 10.6487 70.8131 10.6487 71.3598 10.1701C71.6021 9.94154 71.7393 9.6232 71.7393 9.29014C71.7393 8.95707 71.6021 8.63874 71.3598 8.41014C70.8084 7.94434 70.0013 7.94434 69.4498 8.41014C69.2076 8.63874 69.0703 8.95707 69.0703 9.29014C69.0703 9.6232 69.2076 9.94154 69.4498 10.1701ZM69.8998 18.9101C70.3881 19.2505 70.9754 19.4193 71.5698 19.3901C71.9607 19.3865 72.3486 19.3224 72.7198 19.2001C72.7949 19.1958 72.8643 19.1592 72.9104 19.0997C72.9564 19.0403 72.9744 18.9639 72.9598 18.8901L72.8098 17.6401C72.7998 17.4601 72.6898 17.4001 72.4898 17.4001C72.3431 17.4387 72.1915 17.4556 72.0398 17.4501C71.6998 17.4501 71.5298 17.2601 71.5298 16.8801V12.1601C71.5298 11.9701 71.4398 11.8701 71.2498 11.8701H69.5698C69.4903 11.8603 69.4107 11.8877 69.354 11.9443C69.2973 12.001 69.27 12.0806 69.2798 12.1601V17.6001C69.2622 18.1114 69.4933 18.5996 69.8998 18.9101Z" fill="#696871"/>
<path fill-rule="evenodd" clip-rule="evenodd" d="M81.9996 12.71C81.2318 11.9778 80.1998 11.5881 79.1396 11.63C78.2139 11.6099 77.3206 11.9715 76.6696 12.63C76.3263 11.9592 75.6103 11.5636 74.8596 11.63C74.4916 11.6233 74.1256 11.6843 73.7796 11.81C73.6348 11.8521 73.5389 11.9896 73.5496 12.14V13.32C73.5496 13.48 73.6596 13.56 73.8796 13.56H74.2096C74.3723 13.5362 74.5366 13.5906 74.6528 13.7068C74.7691 13.8231 74.8235 13.9874 74.7996 14.15V22.35C74.7851 22.4279 74.8099 22.5079 74.8659 22.5638C74.9218 22.6198 75.0018 22.6446 75.0796 22.63H76.7596C76.9496 22.63 77.0496 22.54 77.0496 22.35V18.74C77.657 19.1785 78.3908 19.4067 79.1396 19.39C80.2019 19.4328 81.2353 19.0389 81.9996 18.3C83.4668 16.7255 83.4668 14.2846 81.9996 12.71ZM78.9596 17.5895C78.4385 17.5895 77.9399 17.3766 77.5796 17C77.2184 16.574 77.0294 16.0283 77.0496 15.47C77.0264 14.9114 77.2158 14.3646 77.5796 13.94C77.9399 13.5635 78.4385 13.3505 78.9596 13.3505C79.4808 13.3505 79.9793 13.5635 80.3396 13.94C80.7181 14.3573 80.9158 14.9074 80.8896 15.47C80.9126 16.0322 80.7152 16.5811 80.3396 17C79.9793 17.3766 79.4808 17.5895 78.9596 17.5895Z" fill="#696871"/>
<path d="M87.8198 19.3901C86.9221 19.427 86.032 19.2123 85.2498 18.7701C84.6141 18.3872 84.1872 17.7358 84.0898 17.0001C84.0898 16.8001 84.1598 16.7001 84.3798 16.7001H85.8498C85.9924 16.7057 86.1199 16.7907 86.1798 16.9201C86.3898 17.4601 86.9398 17.7301 87.8198 17.7301C88.1268 17.7442 88.4325 17.6823 88.7098 17.5501C88.9049 17.462 89.0356 17.2737 89.0498 17.0601C89.0498 16.8001 88.8898 16.6201 88.5698 16.5001C88.1903 16.3738 87.7979 16.29 87.3998 16.2501C86.9283 16.1968 86.4607 16.1133 85.9998 16.0001C85.5517 15.8987 85.1442 15.6653 84.8298 15.3301C84.4557 14.8696 84.2895 14.2744 84.371 13.6867C84.4526 13.0989 84.7745 12.5714 85.2598 12.2301C85.9806 11.771 86.8263 11.5473 87.6798 11.5901C88.5062 11.5622 89.3238 11.7666 90.0398 12.1801C90.6242 12.5111 91.0283 13.0879 91.1398 13.7501C91.1398 13.9501 91.0498 14.0501 90.8698 14.0501H89.3898C89.2623 14.0577 89.1432 13.9862 89.0898 13.8701C88.991 13.6333 88.8048 13.4435 88.5698 13.3401C88.3048 13.2015 88.0088 13.1326 87.7098 13.1401C87.4167 13.1242 87.1243 13.1827 86.8598 13.3101C86.6692 13.3837 86.5425 13.5658 86.5398 13.7701C86.553 14.0509 86.7477 14.2902 87.0198 14.3601C87.4039 14.5049 87.8031 14.6055 88.2098 14.6601C88.6775 14.7217 89.1415 14.8085 89.5998 14.9201C90.048 15.0216 90.4555 15.2549 90.7698 15.5901C91.1095 15.9631 91.2859 16.4564 91.2598 16.9601C91.2774 17.6633 90.9243 18.324 90.3298 18.7001C89.5827 19.1798 88.7072 19.4205 87.8198 19.3901Z" fill="#696871"/>
<path d="M101.83 18.8901C101.841 18.9618 101.823 19.0352 101.78 19.0935C101.737 19.1518 101.672 19.1903 101.6 19.2001C101.235 19.3193 100.854 19.3834 100.47 19.3901C99.6969 19.4702 98.9384 19.1402 98.4699 18.5201C97.7635 19.1274 96.8502 19.439 95.9199 19.3901C95.0465 19.4304 94.1967 19.0999 93.5799 18.4801C92.9679 17.8312 92.6465 16.961 92.6899 16.0701V12.1601C92.6899 11.9701 92.7799 11.8701 92.9699 11.8701H94.6499C94.8399 11.8701 94.9299 11.9701 94.9299 12.1601V15.7701C94.9116 16.2199 95.0654 16.6597 95.3599 17.0001C95.6573 17.3156 96.0767 17.487 96.5099 17.4701C96.9526 17.4895 97.3847 17.3311 97.7099 17.0301C98.018 16.7127 98.1809 16.2819 98.1599 15.8401V12.1601C98.1599 11.9701 98.2499 11.8701 98.4399 11.8701H100.14C100.33 11.8701 100.42 11.9701 100.42 12.1601V16.8701C100.42 17.2601 100.59 17.4501 100.92 17.4501C101.075 17.4561 101.23 17.4393 101.38 17.4001C101.457 17.3786 101.539 17.3934 101.603 17.4402C101.667 17.487 101.707 17.5606 101.71 17.6401L101.83 18.8901Z" fill="#696871"/>
<path d="M117.72 18.8901C117.738 18.9626 117.722 19.0394 117.678 19.0994C117.633 19.1594 117.564 19.1964 117.49 19.2001C117.118 19.321 116.73 19.3851 116.34 19.3901C115.745 19.4208 115.157 19.2519 114.67 18.9101C114.241 18.6128 113.99 18.1213 114 17.6001V15.2501C114.021 14.8017 113.87 14.362 113.58 14.0201C113.295 13.7036 112.884 13.5312 112.46 13.5501C112.076 13.5357 111.708 13.6978 111.46 13.9901C111.196 14.3252 111.061 14.744 111.08 15.1701V18.8601C111.08 19.0501 110.99 19.1501 110.8 19.1501H109.11C109.03 19.16 108.95 19.1326 108.894 19.076C108.837 19.0193 108.81 18.9397 108.82 18.8601V15.2501C108.841 14.8066 108.703 14.37 108.43 14.0201C108.183 13.7226 107.816 13.5503 107.43 13.5501C107.017 13.5335 106.617 13.6935 106.33 13.9901C106.044 14.3145 105.896 14.7383 105.92 15.1701V18.8601C105.929 18.9397 105.902 19.0193 105.845 19.076C105.789 19.1326 105.709 19.16 105.63 19.1501H104C103.81 19.1501 103.72 19.0501 103.72 18.8601V14.1501C103.743 13.9875 103.689 13.8232 103.573 13.7069C103.457 13.5907 103.292 13.5363 103.13 13.5601H102.8C102.58 13.5601 102.47 13.4801 102.47 13.3201V12.1401C102.459 11.9897 102.555 11.8522 102.7 11.8101C103.045 11.6844 103.412 11.6234 103.78 11.6301C104.5 11.5687 105.193 11.9265 105.56 12.5501C106.242 11.9037 107.162 11.5704 108.1 11.6301C109.013 11.5855 109.894 11.9792 110.47 12.6901C111.14 11.9618 112.101 11.5727 113.09 11.6301C113.972 11.5888 114.831 11.9188 115.46 12.5401C116.074 13.1878 116.395 14.0588 116.35 14.9501V16.8801C116.35 17.2601 116.52 17.4501 116.84 17.4501C116.995 17.4574 117.15 17.4405 117.3 17.4001C117.506 17.4001 117.616 17.4801 117.63 17.6401L117.72 18.8901Z" fill="#696871"/>
<path fill-rule="evenodd" clip-rule="evenodd" d="M0.459805 10.57C1.97789 4.46836 7.45713 0.185303 13.7448 0.185303C20.0325 0.185303 25.5117 4.46836 27.0298 10.57H25.8298C23.8055 10.5402 21.8227 11.1452 20.1598 12.3C20.0638 12.3695 19.9636 12.433 19.8598 12.49H19.7198C19.616 12.433 19.5158 12.3695 19.4198 12.3C15.9883 9.99254 11.5013 9.99254 8.06981 12.3C7.97384 12.3695 7.87364 12.433 7.7698 12.49H7.6298C7.52597 12.433 7.42577 12.3695 7.3298 12.3C5.66694 11.1452 3.68412 10.5402 1.6598 10.57H0.459805ZM23.6698 16.84C24.2858 16.3603 25.0493 16.1093 25.8298 16.13H27.4398V12.92H25.8298C24.455 12.9034 23.1117 13.3313 21.9998 14.14C20.7155 15.0869 18.9641 15.0869 17.6798 14.14C15.3448 12.5146 12.2448 12.5146 9.9098 14.14C8.62546 15.0869 6.87415 15.0869 5.5898 14.14C4.4642 13.321 3.1016 12.8925 1.7098 12.92H0.0498047V16.13H1.6598C2.44031 16.1093 3.20379 16.3603 3.8198 16.84C6.15075 18.4666 9.24886 18.4666 11.5798 16.84C12.1966 16.3618 12.9595 16.111 13.7398 16.13C14.5206 16.1076 15.2846 16.3588 15.8998 16.84C18.2348 18.4655 21.3348 18.4655 23.6698 16.84ZM25.8298 21.87C25.0493 21.8493 24.2858 22.1003 23.6698 22.58C21.3348 24.2055 18.2348 24.2055 15.8998 22.58C15.2846 22.0988 14.5206 21.8476 13.7398 21.87C12.9595 21.851 12.1966 22.1018 11.5798 22.58C9.24886 24.2066 6.15075 24.2066 3.8198 22.58C3.20379 22.1003 2.44031 21.8493 1.6598 21.87H0.0498047V18.66H1.7098C3.1016 18.6325 4.4642 19.061 5.5898 19.88C6.87415 20.8269 8.62546 20.8269 9.9098 19.88C12.2448 18.2546 15.3448 18.2546 17.6798 19.88C18.9641 20.8269 20.7155 20.8269 21.9998 19.88C23.1117 19.0713 24.455 18.6434 25.8298 18.66H27.4398V21.87H25.8298Z" fill="#696871"/>
</svg>
